<svg width="64" height="64" viewBox="0 0 64 64" fill="none" xmlns="http://www.w3.org/2000/svg">
<path d="M6 59H58" stroke="#278D4C" stroke-width="3"/>
<path fill-rule="evenodd" clip-rule="evenodd" d="M47.5562 7.07994H16.4438C11.2723 7.07994 7.07995 11.2723 7.07995 16.4438V47.5562C7.07995 52.7277 11.2723 56.9201 16.4438 56.9201H47.5562C52.7277 56.9201 56.9201 52.7277 56.9201 47.5562V16.4438C56.9201 11.2723 52.7277 7.07994 47.5562 7.07994ZM16.4438 4.96552C10.1045 4.96552 4.96552 10.1045 4.96552 16.4438V47.5562C4.96552 53.8955 10.1045 59.0345 16.4438 59.0345H47.5562C53.8955 59.0345 59.0345 53.8955 59.0345 47.5562V16.4438C59.0345 10.1045 53.8955 4.96552 47.5562 4.96552H16.4438Z" fill="#278D4C"/>
<path fill-rule="evenodd" clip-rule="evenodd" d="M16.5258 0H47.4742C56.6011 0 64 7.39886 64 16.5258V47.4742C64 56.6011 56.6011 64 47.4742 64H16.5258C7.39886 64 0 56.6011 0 47.4742V16.5258C0 7.39886 7.39886 0 16.5258 0ZM16.5258 5.10798C10.2199 5.10798 5.10798 10.2199 5.10798 16.5258V47.4742C5.10798 53.7801 10.2199 58.892 16.5258 58.892H47.4742C53.7801 58.892 58.892 53.7801 58.892 47.4742V16.5258C58.892 10.2199 53.7801 5.10798 47.4742 5.10798H16.5258Z" fill="white"/>
<path fill-rule="evenodd" clip-rule="evenodd" d="M48.0751 0.600939H15.9249C7.4617 0.600939 0.600939 7.4617 0.600939 15.9249V48.0751C0.600939 56.5383 7.4617 63.3991 15.9249 63.3991H48.0751C56.5383 63.3991 63.3991 56.5383 63.3991 48.0751V15.9249C63.3991 7.4617 56.5383 0.600939 48.0751 0.600939ZM15.9249 0C7.12981 0 0 7.12981 0 15.9249V48.0751C0 56.8702 7.12981 64 15.9249 64H48.0751C56.8702 64 64 56.8702 64 48.0751V15.9249C64 7.12981 56.8702 0 48.0751 0H15.9249Z" fill="#A7D1B7"/>
</svg>
