<svg width="52" height="52" viewBox="0 0 52 52" fill="none" xmlns="http://www.w3.org/2000/svg">
<rect width="52" height="52" fill="#FFF"/>
<path opacity="0.943" fill-rule="evenodd" clip-rule="evenodd" d="M5.19197 6C15.3711 7.37566 25.5879 7.73953 35.8425 7.09164C39.5676 6.83788 43.2802 6.48856 46.9803 6.04367C47.4083 6.2129 47.5666 6.51856 47.4551 6.96064C46.6205 8.5326 45.7859 10.1046 44.9513 11.6765C44.8733 11.7814 44.7727 11.8542 44.6491 11.8949C43.6706 11.924 42.692 11.9531 41.7136 11.9822C41.2057 12.8785 40.7308 13.7954 40.289 14.7331C40.2314 15.6064 40.2314 16.4797 40.289 17.353C41.2098 16.9843 42.1452 16.6495 43.095 16.3487C43.4208 16.2454 43.6943 16.3183 43.9152 16.5671C44.041 17.577 44.0842 18.5959 44.0447 19.6237C45.0812 19.6091 46.1173 19.6237 47.153 19.6673C47.2249 19.7401 47.2969 19.8129 47.3688 19.8856C47.4662 20.4443 47.5094 21.012 47.4983 21.5886C47.5094 22.1653 47.4662 22.7329 47.3688 23.2916C47.2343 23.4896 47.0473 23.5915 46.8076 23.5972C44.6205 23.6409 42.4333 23.6555 40.2458 23.6409C40.2458 29.5503 40.2458 35.4597 40.2458 41.3691C42.6686 41.0834 43.7334 42.1604 43.4404 44.6004C44.448 44.5858 45.4553 44.6004 46.4622 44.644C46.9227 45.0807 46.9227 45.5173 46.4622 45.954C40.8214 46.0122 35.1805 46.0122 29.5397 45.954C29.2793 45.8205 29.1642 45.6021 29.1943 45.299C29.1627 44.9992 29.2777 44.7809 29.5397 44.644C30.489 44.6004 31.4387 44.5858 32.3889 44.6004C32.0976 42.1587 33.1624 41.0815 35.5835 41.3691C35.5835 35.4597 35.5835 29.5503 35.5835 23.6409C29.2231 23.6409 22.8628 23.6409 16.5024 23.6409C16.5024 29.5503 16.5024 35.4597 16.5024 41.3691C18.9137 41.0135 20.0073 42.0615 19.7833 44.513C20.7707 44.4732 21.7492 44.5169 22.7189 44.644C23.1381 45.2331 23.0229 45.6697 22.3735 45.954C19.6394 45.9686 16.9054 45.9831 14.1713 45.9977C11.3181 46.011 8.4689 45.9673 5.62367 45.8667C5.37083 45.5822 5.29888 45.2474 5.40782 44.8623C5.49485 44.7087 5.62436 44.6068 5.79635 44.5567C6.71686 44.513 7.63781 44.4984 8.55921 44.513C8.25894 42.0513 9.32379 41.0034 11.7538 41.3691C11.7538 35.4306 11.7538 29.4921 11.7538 23.5536C9.50877 23.5681 7.26394 23.5536 5.01929 23.5099C4.77467 23.4371 4.61638 23.277 4.54443 23.0296C4.53004 22.5202 4.51565 22.0107 4.50126 21.5013C4.49187 20.8979 4.53504 20.3011 4.63077 19.711C4.70869 19.6061 4.80942 19.5333 4.93296 19.4927C5.93984 19.449 6.94713 19.4344 7.95484 19.449C7.94046 18.4588 7.95485 17.469 7.99801 16.4797C8.16387 16.273 8.37972 16.1566 8.64555 16.1304C9.66526 16.4451 10.6726 16.7944 11.6674 17.1784C11.7681 16.3066 11.7825 15.4332 11.7106 14.5584C11.2467 13.6637 10.7718 12.7758 10.286 11.8949C9.39383 11.8657 8.50165 11.8366 7.60948 11.8075C7.32991 11.7873 7.11406 11.6563 6.96193 11.4145C6.1561 9.90079 5.35026 8.38705 4.54443 6.87331C4.45138 6.34212 4.66723 6.05102 5.19197 6ZM6.57341 7.48463C19.4812 9.11356 32.3889 9.11356 45.2966 7.48463C45.3398 7.51374 45.383 7.54285 45.4262 7.57196C44.9369 8.50349 44.4477 9.43502 43.9584 10.3666C31.986 10.483 20.0136 10.483 8.04118 10.3666C7.52764 9.41493 7.03839 8.45429 6.57341 7.48463ZM11.9265 11.9385C21.2942 11.8367 30.6764 11.8221 40.0731 11.8949C39.7168 12.5137 39.3714 13.1396 39.037 13.7725C30.3455 13.8889 21.6541 13.8889 12.9625 13.7725C12.6367 13.1415 12.2913 12.5302 11.9265 11.9385ZM13.2215 15.2571C13.7972 15.2571 14.3727 15.2571 14.9483 15.2571C14.9483 23.9902 14.9483 32.7233 14.9483 41.4564C14.3727 41.4564 13.7972 41.4564 13.2215 41.4564C13.2215 32.7233 13.2215 23.9902 13.2215 15.2571ZM16.5024 15.2571C18.4883 15.2571 20.4741 15.2571 22.4599 15.2571C22.4599 16.7126 22.4599 18.1681 22.4599 19.6237C20.4741 19.6237 18.4883 19.6237 16.5024 19.6237C16.5024 18.1681 16.5024 16.7126 16.5024 15.2571ZM23.9276 15.2571C25.3378 15.2571 26.7481 15.2571 28.1583 15.2571C28.1583 16.7126 28.1583 18.1681 28.1583 19.6237C26.7481 19.6237 25.3378 19.6237 23.9276 19.6237C23.9276 18.1681 23.9276 16.7126 23.9276 15.2571ZM29.5397 15.2571C31.5255 15.2571 33.5113 15.2571 35.4971 15.2571C35.4971 16.7126 35.4971 18.1681 35.4971 19.6237C33.5113 19.6237 31.5255 19.6237 29.5397 19.6237C29.5397 18.1681 29.5397 16.7126 29.5397 15.2571ZM36.9649 15.2571C37.5693 15.2571 38.1736 15.2571 38.778 15.2571C38.778 23.9902 38.778 32.7233 38.778 41.4564C38.1736 41.4564 37.5693 41.4564 36.9649 41.4564C36.9649 32.7233 36.9649 23.9902 36.9649 15.2571ZM9.33627 17.9644C10.1647 18.2436 10.9993 18.5056 11.8401 18.7503C11.8401 19.0123 11.8401 19.2743 11.8401 19.5363C11.0055 19.5363 10.1709 19.5363 9.33627 19.5363C9.33627 19.0123 9.33627 18.4883 9.33627 17.9644ZM42.4043 17.9644C42.4906 17.9644 42.577 17.9644 42.6633 17.9644C42.6633 18.4883 42.6633 19.0123 42.6633 19.5363C41.8287 19.5363 40.9941 19.5363 40.1595 19.5363C40.1595 19.2743 40.1595 19.0123 40.1595 18.7503C40.939 18.5555 41.6873 18.2935 42.4043 17.9644ZM5.96903 20.9336C7.89727 20.9336 9.82553 20.9336 11.7538 20.9336C11.7538 21.3412 11.7538 21.7487 11.7538 22.1563C9.82553 22.1563 7.89727 22.1563 5.96903 22.1563C5.96903 21.7487 5.96903 21.3412 5.96903 20.9336ZM16.5024 20.9336C22.834 20.9336 29.1656 20.9336 35.4971 20.9336C35.4971 21.3412 35.4971 21.7487 35.4971 22.1563C29.1656 22.1563 22.834 22.1563 16.5024 22.1563C16.5024 21.7487 16.5024 21.3412 16.5024 20.9336ZM40.2458 20.9336C42.174 20.9336 44.1023 20.9336 46.0305 20.9336C46.0305 21.3412 46.0305 21.7487 46.0305 22.1563C44.1023 22.1563 42.174 22.1563 40.2458 22.1563C40.2458 21.7487 40.2458 21.3412 40.2458 20.9336ZM10.286 42.9411C12.8476 42.9265 15.409 42.9411 17.9702 42.9847C18.0421 43.0575 18.1141 43.1303 18.1861 43.2031C18.2291 43.6971 18.2436 44.192 18.2292 44.6877C15.4664 44.6877 12.7035 44.6877 9.94064 44.6877C9.92632 44.2501 9.9407 43.8134 9.98381 43.3777C10.0699 43.2185 10.1706 43.0729 10.286 42.9411ZM34.0294 42.9411C36.591 42.9265 39.1523 42.9411 41.7136 42.9847C41.8473 43.0907 41.948 43.2217 42.0158 43.3777C42.0588 43.8134 42.0733 44.2501 42.0589 44.6877C39.2961 44.6877 36.5332 44.6877 33.7703 44.6877C33.756 44.192 33.7704 43.6971 33.8135 43.2031C33.9037 43.1268 33.9756 43.0395 34.0294 42.9411Z" fill="black"/>
</svg>
