<svg width="52" height="52" viewBox="0 0 52 52" fill="none" xmlns="http://www.w3.org/2000/svg">
<rect width="52" height="52" fill="#FFF"/>
<g clip-path="url(#clip0_1_131)">
<path opacity="0.95" fill-rule="evenodd" clip-rule="evenodd" d="M25.5781 1.95312C25.8282 1.95312 26.0781 1.95312 26.3281 1.95312C26.5133 2.0606 26.6539 2.21685 26.75 2.42188C26.755 3.30628 26.8175 4.18127 26.9375 5.04688C27.8146 6.09581 28.674 7.1583 29.5156 8.23438C29.7919 8.31138 30.0732 8.35826 30.3594 8.375C30.6039 8.50422 30.7445 8.70734 30.7813 8.98438C30.828 9.54601 30.8437 10.1085 30.8281 10.6719C31.242 10.6536 31.6483 10.7005 32.0469 10.8125C32.8012 12.0553 33.52 13.3209 34.2031 14.6094C34.5912 14.6625 34.9662 14.7563 35.3281 14.8906C35.4298 14.9998 35.5078 15.1248 35.5625 15.2656C35.625 20.7657 35.625 26.2656 35.5625 31.7656C35.4844 32.0938 35.2813 32.2969 34.9531 32.375C34.3602 32.4219 33.7664 32.4374 33.1719 32.4219C33.1719 37.7031 33.1719 42.9844 33.1719 48.2656C34.646 48.2247 36.1148 48.2715 37.5781 48.4062C37.8749 48.5624 38 48.8124 37.9531 49.1562C37.9874 49.5091 37.8625 49.7747 37.5781 49.9531C29.8281 49.9531 22.0782 49.9531 14.3281 49.9531C14.0438 49.7747 13.9188 49.5091 13.9531 49.1562C13.9063 48.8124 14.0313 48.5624 14.3281 48.4062C15.7915 48.2715 17.2603 48.2247 18.7344 48.2656C18.7344 42.9844 18.7344 37.7031 18.7344 32.4219C18.0387 32.4585 17.3512 32.4117 16.6719 32.2812C16.4856 32.1576 16.3762 31.9858 16.3438 31.7656C16.2812 26.2656 16.2812 20.7657 16.3438 15.2656C16.4218 15 16.5938 14.8281 16.8594 14.75C17.1456 14.7332 17.4268 14.6863 17.7031 14.6094C18.3863 13.3209 19.1051 12.0553 19.8594 10.8125C20.2579 10.7005 20.6642 10.6536 21.0781 10.6719C21.0626 10.1085 21.0782 9.54601 21.125 8.98438C21.1618 8.70734 21.3024 8.50422 21.5469 8.375C21.8331 8.35826 22.1143 8.31138 22.3906 8.23438C23.2322 7.1583 24.0916 6.09581 24.9688 5.04688C25.0888 4.18127 25.1513 3.30628 25.1563 2.42188C25.2523 2.21685 25.393 2.0606 25.5781 1.95312ZM25.8594 6.54688C26.4022 7.07506 26.9022 7.65319 27.3594 8.28125C26.4219 8.34375 25.4844 8.34375 24.5469 8.28125C25.0202 7.72275 25.4578 7.14463 25.8594 6.54688ZM22.7656 10.0156C24.8907 10.0156 27.0156 10.0156 29.1406 10.0156C29.1406 10.2344 29.1406 10.4531 29.1406 10.6719C27.0156 10.6719 24.8907 10.6719 22.7656 10.6719C22.7656 10.4531 22.7656 10.2344 22.7656 10.0156ZM20.8906 12.3594C24.2658 12.3437 27.6408 12.3594 31.0156 12.4062C31.4458 13.1412 31.852 13.8912 32.2344 14.6562C28.0468 14.7188 23.8594 14.7188 19.6719 14.6562C20.0674 13.8807 20.4736 13.1151 20.8906 12.3594ZM17.9844 16.3906C23.2969 16.3906 28.6093 16.3906 33.9219 16.3906C33.9219 21.1719 33.9219 25.9531 33.9219 30.7344C28.6093 30.7344 23.2969 30.7344 17.9844 30.7344C17.9844 25.9531 17.9844 21.1719 17.9844 16.3906ZM25.6719 19.5781C27.9239 19.6599 29.3146 20.7849 29.8438 22.9531C30.0238 25.2669 29.0083 26.7513 26.7969 27.4062C24.2803 27.6879 22.7023 26.6098 22.0625 24.1719C21.8983 22.2027 22.6952 20.7808 24.4531 19.9062C24.8619 19.7578 25.2682 19.6484 25.6719 19.5781ZM20.4219 32.4219C24.1093 32.4219 27.7969 32.4219 31.4844 32.4219C31.4844 37.7031 31.4844 42.9844 31.4844 48.2656C27.7969 48.2656 24.1093 48.2656 20.4219 48.2656C20.4219 42.9844 20.4219 37.7031 20.4219 32.4219Z" fill="#242424"/>
<path opacity="0.936" fill-rule="evenodd" clip-rule="evenodd" d="M25.2969 17.8906C28.6751 17.8183 30.7533 19.412 31.5312 22.6719C31.7767 26.0191 30.2922 28.1597 27.0781 29.0938C24.3943 29.4939 22.3475 28.5408 20.9375 26.2344C19.8332 23.7262 20.1926 21.4606 22.0156 19.4375C22.9725 18.6151 24.0662 18.0995 25.2969 17.8906ZM25.6719 19.5781C25.2682 19.6484 24.8619 19.7578 24.4531 19.9063C22.6952 20.7808 21.8983 22.2028 22.0625 24.1719C22.7022 26.6098 24.2803 27.6879 26.7969 27.4063C29.0082 26.7513 30.0238 25.2669 29.8437 22.9531C29.3146 20.7849 27.9239 19.6599 25.6719 19.5781Z" fill="#242424"/>
<path opacity="0.933" fill-rule="evenodd" clip-rule="evenodd" d="M25.5781 20.3281C26.1396 20.1936 26.5302 20.3811 26.75 20.8906C26.7969 21.4836 26.8124 22.0773 26.7969 22.6719C27.2108 22.6536 27.6171 22.7005 28.0156 22.8125C28.4718 23.2549 28.503 23.7237 28.1094 24.2187C27.2752 24.3696 26.4314 24.4008 25.5781 24.3125C25.444 24.2689 25.3347 24.1907 25.25 24.0781C25.0979 23.0247 25.0667 21.9623 25.1563 20.8906C25.2316 20.6426 25.3723 20.4551 25.5781 20.3281Z" fill="#F4F5F7"/>
<path opacity="0.94" fill-rule="evenodd" clip-rule="evenodd" d="M22.3906 33.9219C22.9475 33.7877 23.3381 33.9752 23.5625 34.4844C23.625 38.3907 23.625 42.2968 23.5625 46.2031C23.4536 46.6093 23.188 46.7968 22.7656 46.7656C22.3903 46.7892 22.1247 46.6329 21.9687 46.2969C21.9062 42.3282 21.9062 38.3593 21.9687 34.3906C22.0648 34.1856 22.2055 34.0293 22.3906 33.9219Z" fill="#242424"/>
<path opacity="0.939" fill-rule="evenodd" clip-rule="evenodd" d="M25.5781 33.9219C26.1396 33.7873 26.5301 33.9748 26.75 34.4844C26.8125 38.4219 26.8125 42.3594 26.75 46.2969C26.594 46.6329 26.3284 46.7892 25.9531 46.7656C25.5778 46.7892 25.3122 46.6329 25.1562 46.2969C25.0937 42.3594 25.0937 38.4219 25.1562 34.4844C25.2316 34.2363 25.3722 34.0488 25.5781 33.9219Z" fill="#242424"/>
<path opacity="0.94" fill-rule="evenodd" clip-rule="evenodd" d="M28.7656 33.9219C29.0175 33.9065 29.2676 33.9222 29.5156 33.9688C29.7188 34.0468 29.8594 34.1875 29.9375 34.3906C30 38.3593 30 42.3282 29.9375 46.2969C29.7815 46.6329 29.5159 46.7892 29.1406 46.7656C28.7183 46.7968 28.4526 46.6093 28.3437 46.2031C28.2812 42.2968 28.2812 38.3907 28.3437 34.4844C28.4355 34.253 28.5761 34.0655 28.7656 33.9219Z" fill="#242424"/>
</g>
<defs>
<clipPath id="clip0_1_131">
<rect width="48" height="48" fill="white" transform="translate(2 2)"/>
</clipPath>
</defs>
</svg>
