<svg width="52" height="52" viewBox="0 0 52 52" fill="none" xmlns="http://www.w3.org/2000/svg">
<rect width="52" height="52" fill="#FFF"/>
<path opacity="0.949" fill-rule="evenodd" clip-rule="evenodd" d="M16.8047 4C22.9349 4 29.0651 4 35.1953 4C36.1696 4.52054 36.5849 5.35126 36.4414 6.49219C36.5273 6.57812 36.6133 6.66406 36.6992 6.75C37.3567 8.97091 38.6315 10.7326 40.5234 12.0352C41.8498 12.8107 43.282 13.1832 44.8203 13.1523C44.9778 13.1953 45.0781 13.2956 45.1211 13.4531C45.2692 13.9027 45.1403 14.2321 44.7344 14.4414C44.2831 14.5105 43.8391 14.4961 43.4023 14.3984C41.8559 15.3293 40.1801 15.8162 38.375 15.8594C38.3465 16.8636 38.3751 17.8662 38.4609 18.8672C38.9696 19.1021 39.0985 19.4745 38.8477 19.9844C38.398 20.2623 38.2691 20.6633 38.4609 21.1875C38.9853 21.4311 39.1 21.8036 38.8047 22.3047C38.6832 22.4013 38.5543 22.4872 38.418 22.5625C38.3751 22.8763 38.3608 23.1914 38.375 23.5078C38.8306 23.4734 39.2173 23.6166 39.5352 23.9375C40.1366 25.9304 41.2395 27.5776 42.8438 28.8789C44.2794 29.897 45.8836 30.384 47.6562 30.3398C47.7875 30.4285 47.902 30.5288 48 30.6406C48 30.8698 48 31.0989 48 31.3281C47.8702 31.4429 47.727 31.5432 47.5703 31.6289C47.0547 31.6575 46.5391 31.6862 46.0234 31.7148C45.2123 32.1812 44.3529 32.5392 43.4453 32.7891C43.3737 34.3638 43.3308 35.9394 43.3164 37.5156C43.2734 37.6731 43.1731 37.7734 43.0156 37.8164C42.4783 37.9707 42.1489 37.7846 42.0273 37.2578C41.9844 35.8545 41.97 34.4508 41.9844 33.0469C41.6651 33.0403 41.3501 33.0689 41.0391 33.1328C41.0391 36.8567 41.0391 40.5808 41.0391 44.3047C41.3542 44.3047 41.6692 44.3047 41.9844 44.3047C41.97 42.9294 41.9844 41.5544 42.0273 40.1797C42.0847 39.7786 42.3138 39.5495 42.7148 39.4922C42.9581 39.5315 43.1586 39.6462 43.3164 39.8359C43.3594 41.3252 43.3737 42.8148 43.3594 44.3047C44.0969 44.1918 44.6555 44.4496 45.0352 45.0781C45.2535 45.933 45.1962 46.7637 44.8633 47.5703C44.6944 47.7465 44.5082 47.8897 44.3047 48C38.5755 48 32.8464 48 27.1172 48C26.7766 47.5846 26.7766 47.1692 27.1172 46.7539C32.6744 46.7109 38.2317 46.6966 43.7891 46.7109C43.7891 46.3672 43.7891 46.0234 43.7891 45.6797C31.9297 45.6797 20.0703 45.6797 8.21094 45.6797C8.21094 46.0234 8.21094 46.3672 8.21094 46.7109C13.7683 46.6966 19.3256 46.7109 24.8828 46.7539C25.2234 47.1692 25.2234 47.5846 24.8828 48C19.1536 48 13.4245 48 7.69531 48C7.25363 47.8007 6.98149 47.457 6.87891 46.9688C6.78423 46.2648 6.84152 45.5773 7.05078 44.9062C7.43778 44.4285 7.93908 44.228 8.55469 44.3047C8.56901 40.466 8.55469 36.6275 8.51172 32.7891C7.60593 32.5154 6.73224 32.1573 5.89062 31.7148C5.40364 31.6862 4.91667 31.6575 4.42969 31.6289C4.27302 31.5432 4.12979 31.4429 4 31.3281C4 31.0989 4 30.8698 4 30.6406C4.09797 30.5288 4.21255 30.4285 4.34375 30.3398C7.40488 30.3207 9.73952 29.0174 11.3477 26.4297C11.7908 25.6294 12.1632 24.7988 12.4648 23.9375C12.7827 23.6166 13.1694 23.4734 13.625 23.5078C13.6392 23.1914 13.6249 22.8763 13.582 22.5625C13.0768 22.326 12.9335 21.9535 13.1523 21.4453C13.602 21.1674 13.7309 20.7664 13.5391 20.2422C13.0604 19.9952 12.9315 19.6228 13.1523 19.125C13.2591 19.0071 13.388 18.9212 13.5391 18.8672C13.6249 17.8662 13.6535 16.8636 13.625 15.8594C11.8076 15.8073 10.1175 15.3204 8.55469 14.3984C8.12967 14.4942 7.69999 14.5085 7.26562 14.4414C6.85967 14.2321 6.73077 13.9027 6.87891 13.4531C6.92188 13.2956 7.02214 13.1953 7.17969 13.1523C10.3312 13.1315 12.6945 11.7708 14.2695 9.07031C14.6514 8.38269 14.9666 7.66655 15.2148 6.92188C15.2967 6.75385 15.4114 6.61063 15.5586 6.49219C15.4151 5.35126 15.8304 4.52054 16.8047 4ZM17.4062 5.28906C23.1354 5.27474 28.8646 5.28906 34.5938 5.33203C34.7955 5.3415 34.9244 5.44176 34.9805 5.63281C35.0232 5.8602 35.0375 6.08937 35.0234 6.32031C29.0078 6.32031 22.9922 6.32031 16.9766 6.32031C16.9625 6.08937 16.9768 5.8602 17.0195 5.63281C17.0975 5.45156 17.2264 5.33698 17.4062 5.28906ZM16.4609 7.69531C22.8492 7.66667 29.2373 7.69531 35.625 7.78125C36.5733 10.663 38.4352 12.7111 41.2109 13.9258C40.2115 14.2902 39.1802 14.4907 38.1172 14.5273C30.0391 14.5847 21.9609 14.5847 13.8828 14.5273C12.8191 14.4922 11.7878 14.2917 10.7891 13.9258C13.5928 12.6831 15.4834 10.6063 16.4609 7.69531ZM15 15.9453C22.3333 15.9453 29.6667 15.9453 37 15.9453C37 16.9192 37 17.8933 37 18.8672C29.6667 18.8672 22.3333 18.8672 15 18.8672C15 17.8933 15 16.9192 15 15.9453ZM15 20.2422C15.5156 20.2422 16.0312 20.2422 16.5469 20.2422C16.5469 20.5573 16.5469 20.8724 16.5469 21.1875C16.0312 21.1875 15.5156 21.1875 15 21.1875C15 20.8724 15 20.5573 15 20.2422ZM17.9219 20.2422C18.4375 20.2422 18.9531 20.2422 19.4688 20.2422C19.4688 20.5573 19.4688 20.8724 19.4688 21.1875C18.9531 21.1875 18.4375 21.1875 17.9219 21.1875C17.9219 20.8724 17.9219 20.5573 17.9219 20.2422ZM20.8438 20.2422C21.3594 20.2422 21.875 20.2422 22.3906 20.2422C22.3906 20.5573 22.3906 20.8724 22.3906 21.1875C21.875 21.1875 21.3594 21.1875 20.8438 21.1875C20.8438 20.8724 20.8438 20.5573 20.8438 20.2422ZM23.7656 20.2422C24.2812 20.2422 24.7969 20.2422 25.3125 20.2422C25.3125 20.5573 25.3125 20.8724 25.3125 21.1875C24.7969 21.1875 24.2812 21.1875 23.7656 21.1875C23.7656 20.8724 23.7656 20.5573 23.7656 20.2422ZM26.6875 20.2422C27.2031 20.2422 27.7188 20.2422 28.2344 20.2422C28.2344 20.5573 28.2344 20.8724 28.2344 21.1875C27.7188 21.1875 27.2031 21.1875 26.6875 21.1875C26.6875 20.8724 26.6875 20.5573 26.6875 20.2422ZM29.6094 20.2422C30.125 20.2422 30.6406 20.2422 31.1562 20.2422C31.1562 20.5573 31.1562 20.8724 31.1562 21.1875C30.6406 21.1875 30.125 21.1875 29.6094 21.1875C29.6094 20.8724 29.6094 20.5573 29.6094 20.2422ZM32.5312 20.2422C33.0469 20.2422 33.5625 20.2422 34.0781 20.2422C34.0781 20.5573 34.0781 20.8724 34.0781 21.1875C33.5625 21.1875 33.0469 21.1875 32.5312 21.1875C32.5312 20.8724 32.5312 20.5573 32.5312 20.2422ZM35.4531 20.2422C35.9688 20.2422 36.4844 20.2422 37 20.2422C37 20.5573 37 20.8724 37 21.1875C36.4844 21.1875 35.9688 21.1875 35.4531 21.1875C35.4531 20.8724 35.4531 20.5573 35.4531 20.2422ZM15 22.5625C15.5156 22.5625 16.0312 22.5625 16.5469 22.5625C16.5469 22.8776 16.5469 23.1927 16.5469 23.5078C16.0312 23.5078 15.5156 23.5078 15 23.5078C15 23.1927 15 22.8776 15 22.5625ZM17.9219 22.5625C18.4375 22.5625 18.9531 22.5625 19.4688 22.5625C19.4688 22.8776 19.4688 23.1927 19.4688 23.5078C18.9531 23.5078 18.4375 23.5078 17.9219 23.5078C17.9219 23.1927 17.9219 22.8776 17.9219 22.5625ZM20.8438 22.5625C21.3594 22.5625 21.875 22.5625 22.3906 22.5625C22.3906 22.8776 22.3906 23.1927 22.3906 23.5078C21.875 23.5078 21.3594 23.5078 20.8438 23.5078C20.8438 23.1927 20.8438 22.8776 20.8438 22.5625ZM23.7656 22.5625C24.2812 22.5625 24.7969 22.5625 25.3125 22.5625C25.3125 22.8776 25.3125 23.1927 25.3125 23.5078C24.7969 23.5078 24.2812 23.5078 23.7656 23.5078C23.7656 23.1927 23.7656 22.8776 23.7656 22.5625ZM26.6875 22.5625C27.2031 22.5625 27.7188 22.5625 28.2344 22.5625C28.2344 22.8776 28.2344 23.1927 28.2344 23.5078C27.7188 23.5078 27.2031 23.5078 26.6875 23.5078C26.6875 23.1927 26.6875 22.8776 26.6875 22.5625ZM29.6094 22.5625C30.125 22.5625 30.6406 22.5625 31.1562 22.5625C31.1562 22.8776 31.1562 23.1927 31.1562 23.5078C30.6406 23.5078 30.125 23.5078 29.6094 23.5078C29.6094 23.1927 29.6094 22.8776 29.6094 22.5625ZM32.5312 22.5625C33.0469 22.5625 33.5625 22.5625 34.0781 22.5625C34.0781 22.8776 34.0781 23.1927 34.0781 23.5078C33.5625 23.5078 33.0469 23.5078 32.5312 23.5078C32.5312 23.1927 32.5312 22.8776 32.5312 22.5625ZM35.4531 22.5625C35.9688 22.5625 36.4844 22.5625 37 22.5625C37 22.8776 37 23.1927 37 23.5078C36.4844 23.5078 35.9688 23.5078 35.4531 23.5078C35.4531 23.1927 35.4531 22.8776 35.4531 22.5625ZM13.625 24.8828C21.9036 24.8828 30.1823 24.8828 38.4609 24.8828C39.3698 27.8114 41.2318 29.8882 44.0469 31.1133C43.1333 31.4634 42.188 31.664 41.2109 31.7148C31.0417 31.7722 20.8724 31.7722 10.7031 31.7148C9.75582 31.6499 8.83916 31.4494 7.95312 31.1133C10.7568 29.8706 12.6475 27.7938 13.625 24.8828ZM9.92969 33.0469C10.2776 33.0379 10.6213 33.0665 10.9609 33.1328C10.9609 36.8567 10.9609 40.5808 10.9609 44.3047C10.6172 44.3047 10.2734 44.3047 9.92969 44.3047C9.92969 40.5521 9.92969 36.7995 9.92969 33.0469ZM12.3359 33.1328C13.7969 33.1328 15.2578 33.1328 16.7188 33.1328C16.7188 33.6484 16.7188 34.1641 16.7188 34.6797C15.2578 34.6797 13.7969 34.6797 12.3359 34.6797C12.3359 34.1641 12.3359 33.6484 12.3359 33.1328ZM18.0938 33.1328C23.3646 33.1328 28.6354 33.1328 33.9062 33.1328C33.9062 33.6484 33.9062 34.1641 33.9062 34.6797C28.6354 34.6797 23.3646 34.6797 18.0938 34.6797C18.0938 34.1641 18.0938 33.6484 18.0938 33.1328ZM35.2812 33.1328C36.7422 33.1328 38.2031 33.1328 39.6641 33.1328C39.6641 33.6484 39.6641 34.1641 39.6641 34.6797C38.2031 34.6797 36.7422 34.6797 35.2812 34.6797C35.2812 34.1641 35.2812 33.6484 35.2812 33.1328ZM12.3359 36.0547C13.7969 36.0547 15.2578 36.0547 16.7188 36.0547C16.7188 37.5442 16.7188 39.0339 16.7188 40.5234C15.2578 40.5234 13.7969 40.5234 12.3359 40.5234C12.3359 39.0339 12.3359 37.5442 12.3359 36.0547ZM18.0938 36.0547C18.4089 36.0547 18.7239 36.0547 19.0391 36.0547C19.0391 36.3984 19.0391 36.7422 19.0391 37.0859C18.7239 37.0859 18.4089 37.0859 18.0938 37.0859C18.0938 36.7422 18.0938 36.3984 18.0938 36.0547ZM20.4141 36.0547C20.8438 36.0547 21.2734 36.0547 21.7031 36.0547C21.7031 38.8047 21.7031 41.5547 21.7031 44.3047C21.2734 44.3047 20.8438 44.3047 20.4141 44.3047C20.4141 41.5547 20.4141 38.8047 20.4141 36.0547ZM23.0781 36.0547C23.3933 36.0547 23.7083 36.0547 24.0234 36.0547C24.0234 36.3984 24.0234 36.7422 24.0234 37.0859C23.7083 37.0859 23.3933 37.0859 23.0781 37.0859C23.0781 36.7422 23.0781 36.3984 23.0781 36.0547ZM25.3984 36.0547C25.7995 36.0547 26.2005 36.0547 26.6016 36.0547C26.6016 38.8047 26.6016 41.5547 26.6016 44.3047C26.2005 44.3047 25.7995 44.3047 25.3984 44.3047C25.3984 41.5547 25.3984 38.8047 25.3984 36.0547ZM27.9766 36.0547C28.2917 36.0547 28.6067 36.0547 28.9219 36.0547C28.9219 36.3984 28.9219 36.7422 28.9219 37.0859C28.6067 37.0859 28.2917 37.0859 27.9766 37.0859C27.9766 36.7422 27.9766 36.3984 27.9766 36.0547ZM30.2969 36.0547C30.7266 36.0547 31.1562 36.0547 31.5859 36.0547C31.5859 38.8047 31.5859 41.5547 31.5859 44.3047C31.1562 44.3047 30.7266 44.3047 30.2969 44.3047C30.2969 41.5547 30.2969 38.8047 30.2969 36.0547ZM32.9609 36.0547C33.2761 36.0547 33.5911 36.0547 33.9062 36.0547C33.9062 36.3984 33.9062 36.7422 33.9062 37.0859C33.5911 37.0859 33.2761 37.0859 32.9609 37.0859C32.9609 36.7422 32.9609 36.3984 32.9609 36.0547ZM35.2812 36.0547C36.7422 36.0547 38.2031 36.0547 39.6641 36.0547C39.6641 37.5442 39.6641 39.0339 39.6641 40.5234C38.2031 40.5234 36.7422 40.5234 35.2812 40.5234C35.2812 39.0339 35.2812 37.5442 35.2812 36.0547ZM18.0938 38.4609C18.4089 38.4609 18.7239 38.4609 19.0391 38.4609C19.0391 40.4089 19.0391 42.3567 19.0391 44.3047C18.7239 44.3047 18.4089 44.3047 18.0938 44.3047C18.0938 42.3567 18.0938 40.4089 18.0938 38.4609ZM23.0781 38.4609C23.3933 38.4609 23.7083 38.4609 24.0234 38.4609C24.0234 40.4089 24.0234 42.3567 24.0234 44.3047C23.7083 44.3047 23.3933 44.3047 23.0781 44.3047C23.0781 42.3567 23.0781 40.4089 23.0781 38.4609ZM27.9766 38.4609C28.2917 38.4609 28.6067 38.4609 28.9219 38.4609C28.9219 40.4089 28.9219 42.3567 28.9219 44.3047C28.6067 44.3047 28.2917 44.3047 27.9766 44.3047C27.9766 42.3567 27.9766 40.4089 27.9766 38.4609ZM32.9609 38.4609C33.2761 38.4609 33.5911 38.4609 33.9062 38.4609C33.9062 40.4089 33.9062 42.3567 33.9062 44.3047C33.5911 44.3047 33.2761 44.3047 32.9609 44.3047C32.9609 42.3567 32.9609 40.4089 32.9609 38.4609ZM12.3359 41.8984C13.7969 41.8984 15.2578 41.8984 16.7188 41.8984C16.7188 42.7005 16.7188 43.5026 16.7188 44.3047C15.2578 44.3047 13.7969 44.3047 12.3359 44.3047C12.3359 43.5026 12.3359 42.7005 12.3359 41.8984ZM35.2812 41.8984C36.7422 41.8984 38.2031 41.8984 39.6641 41.8984C39.6641 42.7005 39.6641 43.5026 39.6641 44.3047C38.2031 44.3047 36.7422 44.3047 35.2812 44.3047C35.2812 43.5026 35.2812 42.7005 35.2812 41.8984Z" fill="black"/>
</svg>
