<svg width="52" height="52" viewBox="0 0 52 52" fill="none" xmlns="http://www.w3.org/2000/svg">
<g clip-path="url(#clip0_1_114)">
<rect width="52" height="52" fill="#FFF"/>
<path opacity="0.947" fill-rule="evenodd" clip-rule="evenodd" d="M26.3373 1.18171C26.4024 1.18171 26.4674 1.18171 26.5325 1.18171C26.717 2.51685 26.9122 3.85052 27.118 5.18268C27.4773 5.16655 27.8351 5.18282 28.1914 5.23148C28.3657 5.30803 28.5121 5.42189 28.6306 5.57302C28.7687 6.17947 28.8175 6.7975 28.7769 7.42714C29.2657 7.35597 29.6398 7.51861 29.8992 7.91506C29.9643 9.02102 29.9643 10.127 29.8992 11.2329C29.5347 11.5839 29.0956 11.7139 28.5818 11.6233C28.8559 15.4281 29.1161 19.2339 29.3625 23.0407C30.4364 23.0244 31.5098 23.0407 32.5828 23.0895C33.1214 23.2713 33.3328 23.6453 33.2171 24.2117C32.8569 25.1141 32.4503 25.9924 31.9972 26.8465C32.3186 27.9033 32.5301 28.9767 32.6315 30.0668C32.5626 30.2211 32.4813 30.3675 32.3876 30.5059C32.0639 30.5545 31.7386 30.5708 31.4117 30.5547C31.5045 31.9898 32.0575 33.2096 33.0707 34.2142C33.6887 34.2467 34.3068 34.2793 34.9248 34.3118C35.1507 34.42 35.2971 34.5989 35.3639 34.8485C35.4234 36.1548 35.4234 37.4559 35.3639 38.7519C37.5759 42.4601 39.7877 46.1683 41.9997 49.8765C42.2333 50.3618 42.1519 50.7847 41.7557 51.1451C39.804 51.1451 37.8523 51.1451 35.9006 51.1451C34.5341 49.1108 33.1842 47.0615 31.8509 44.9973C29.6877 41.9359 26.874 41.1389 23.4098 42.6065C22.4185 43.2691 21.589 44.0985 20.9214 45.0949C19.6247 47.1382 18.3073 49.155 16.9692 51.1451C15.0175 51.1451 13.0658 51.1451 11.1141 51.1451C10.5303 50.6907 10.4816 50.1702 10.9677 49.5838C13.1757 45.8999 15.3713 42.2079 17.5547 38.5079C17.442 37.2955 17.4258 36.0757 17.5059 34.8485C17.5727 34.5989 17.7191 34.42 17.945 34.3118C18.563 34.2793 19.1811 34.2467 19.7991 34.2142C20.7588 33.1887 21.2792 31.9688 21.3605 30.5547C20.3207 30.7346 19.8816 30.3118 20.0431 29.2861C20.2623 28.3608 20.4736 27.4338 20.6774 26.505C20.3826 25.7362 20.0735 24.9718 19.7503 24.2117C19.6208 23.6411 19.8322 23.2671 20.3846 23.0895C21.425 23.0407 22.4659 23.0244 23.5074 23.0407C23.7538 19.2339 24.0139 15.4281 24.288 11.6233C23.7743 11.7139 23.3351 11.5839 22.9706 11.2329C22.9056 10.127 22.9056 9.02102 22.9706 7.91506C23.23 7.51861 23.6041 7.35597 24.0929 7.42714C24.0568 6.80014 24.1056 6.18211 24.2392 5.57302C24.3577 5.42189 24.5041 5.30803 24.6784 5.23148C25.0348 5.18282 25.3925 5.16655 25.7518 5.18268C25.9576 3.85052 26.1528 2.51685 26.3373 1.18171ZM25.7518 6.84163C26.2072 6.84163 26.6626 6.84163 27.118 6.84163C27.118 7.0368 27.118 7.23197 27.118 7.42714C26.6626 7.42714 26.2072 7.42714 25.7518 7.42714C25.7518 7.23197 25.7518 7.0368 25.7518 6.84163ZM24.4832 9.08608C25.7843 9.08608 27.0855 9.08608 28.3866 9.08608C28.3866 9.41136 28.3866 9.73665 28.3866 10.0619C27.0855 10.0619 25.7843 10.0619 24.4832 10.0619C24.4832 9.73665 24.4832 9.41136 24.4832 9.08608ZM25.947 11.6233C26.2722 11.6233 26.5976 11.6233 26.9228 11.6233C27.1784 15.4294 27.4387 19.2352 27.7035 23.0407C26.8577 23.0407 26.0121 23.0407 25.1663 23.0407C25.4312 19.2352 25.6914 15.4294 25.947 11.6233ZM21.7508 24.8948C24.8571 24.7812 27.9798 24.7649 31.119 24.846C31.009 25.0171 30.9114 25.1961 30.8262 25.3827C27.8993 25.4966 24.9717 25.5128 22.0436 25.4315C21.9354 25.2485 21.8378 25.0696 21.7508 24.8948ZM22.2388 27.0417C22.6024 27.0102 22.9602 27.0428 23.3122 27.1393C23.1619 27.7485 23.0643 28.3665 23.0194 28.9934C22.5916 29.0252 22.1688 28.9926 21.7508 28.8958C21.929 28.2807 22.0916 27.6627 22.2388 27.0417ZM24.8736 27.0417C25.9145 27.0417 26.9553 27.0417 27.9963 27.0417C28.0412 27.6686 28.1387 28.2866 28.289 28.8958C27.0529 29.0259 25.8169 29.0259 24.5808 28.8958C24.7311 28.2866 24.8287 27.6686 24.8736 27.0417ZM30.8262 28.8958C30.501 28.9283 30.1756 28.9609 29.8504 28.9934C29.8055 28.3665 29.7079 27.7485 29.5576 27.1393C29.8433 27.0432 30.1361 27.0107 30.4359 27.0417C30.5815 27.6565 30.7116 28.2746 30.8262 28.8958ZM22.9219 30.5547C25.2314 30.5547 27.5408 30.5547 29.8504 30.5547C29.9025 31.8864 30.2928 33.1062 31.0214 34.2142C27.9632 34.2955 24.9056 34.2793 21.8484 34.1654C22.5245 33.0549 22.8822 31.8512 22.9219 30.5547ZM19.116 35.8243C23.9965 35.8243 28.8757 35.8243 33.7538 35.8243C33.7538 36.3773 33.7538 36.9302 33.7538 37.4833C28.8745 37.4833 23.9953 37.4833 19.116 37.4833C19.116 36.9302 19.116 36.3773 19.116 35.8243ZM19.0185 39.0446C23.9307 39.0121 28.8424 39.0446 33.7538 39.1422C35.803 42.5902 37.8523 46.0382 39.9016 49.4862C38.8607 49.6163 37.8198 49.6163 36.7789 49.4862C35.5783 47.5864 34.3585 45.6998 33.1195 43.8263C30.567 40.4103 27.2654 39.4182 23.2146 40.8499C21.7227 41.6363 20.5029 42.726 19.5552 44.119C18.4005 45.9081 17.2456 47.6972 16.0909 49.4862C15.0189 49.6 13.9455 49.6162 12.8706 49.535C14.9447 46.0475 16.994 42.5507 19.0185 39.0446Z" fill="black" fill-opacity="0.9"/>
</g>
<defs>
<clipPath id="clip0_1_114">
<rect width="52" height="52" fill="white"/>
</clipPath>
</defs>
</svg>
