<svg width="52" height="52" viewBox="0 0 52 52" fill="none" xmlns="http://www.w3.org/2000/svg">
<g clip-path="url(#clip0_1_97)">
<rect width="52" height="52" fill="#FFF"/>
<g clip-path="url(#clip1_1_97)">
<path opacity="0.937" fill-rule="evenodd" clip-rule="evenodd" d="M21.0742 -0.0507812C21.5821 -0.0507812 22.0899 -0.0507812 22.5977 -0.0507812C27.1505 0.798505 31.7208 1.62794 36.3086 2.4375C36.7406 2.78488 36.8253 3.20806 36.5625 3.70703C36.4006 3.88955 36.1975 3.99111 35.9532 4.01172C31.4326 3.22162 26.9131 2.42605 22.3946 1.625C21.5482 1.33232 21.0574 1.62008 20.9219 2.48828C20.611 4.25218 20.2894 6.0126 19.9571 7.76953C20.6949 7.96452 21.4397 8.1338 22.1914 8.27734C22.2617 8.22399 22.3125 8.15629 22.3438 8.07422C22.5339 6.95439 22.737 5.8372 22.9532 4.72266C23.6651 4.10352 24.1899 4.23894 24.5274 5.12891C24.3109 6.27879 24.1078 7.42982 23.918 8.58203C24.6895 8.67954 25.4512 8.81497 26.2032 8.98828C26.2997 8.03491 26.5367 7.12085 26.9141 6.24609C28.0809 4.92193 29.452 4.66803 31.0274 5.48438C31.8247 6.08042 32.231 6.87599 32.2461 7.87109C32.1775 8.58779 32.0759 9.29873 31.9414 10.0039C32.7166 10.0811 33.4783 10.2166 34.2266 10.4102C34.4297 9.25912 34.6328 8.10807 34.836 6.95703C35.2944 6.32257 35.8022 6.28871 36.3594 6.85547C36.3764 7.00781 36.3932 7.16016 36.4102 7.3125C36.2132 8.44367 36.044 9.57778 35.9024 10.7148C36.6793 10.8274 37.4579 10.9289 38.2383 11.0195C38.5362 9.14075 38.8409 7.26184 39.1524 5.38281C39.0564 4.93597 38.8871 4.51279 38.6446 4.11328C38.8429 3.32022 39.3169 3.10016 40.0664 3.45312C40.7312 4.19573 40.9512 5.05901 40.7266 6.04297C40.4302 7.7954 40.1086 9.53889 39.7617 11.2734C40.7026 11.4981 41.6505 11.7012 42.6055 11.8828C43.3426 12.1798 43.8336 12.7046 44.0782 13.457C44.2159 14.5268 44.0466 15.5424 43.5703 16.5039C43.0955 17.1222 42.4692 17.4269 41.6914 17.418C41.1773 20.5197 40.6356 23.6173 40.0664 26.7109C40.6228 26.9964 41.0459 27.4196 41.336 27.9805C41.6126 29.1801 41.4771 30.3312 40.9297 31.4336C40.4289 31.9972 39.8026 32.3019 39.0508 32.3477C38.5614 35.4379 38.0197 38.5186 37.4258 41.5898C38.6916 42.3276 39.1486 43.4109 38.7969 44.8398C38.6653 46.3086 37.8697 47.1211 36.4102 47.2773C36.2669 48.5094 36.0468 49.7281 35.75 50.9336C35.472 51.3642 35.1165 51.7028 34.6836 51.9492C27.3711 51.9492 20.0586 51.9492 12.7461 51.9492C12.3436 51.4583 12.3436 50.9673 12.7461 50.4766C13.3131 50.4572 13.8717 50.4064 14.4219 50.3242C14.8224 48.0906 15.2117 45.8562 15.5899 43.6211C14.0628 43.3766 12.5393 43.1058 11.0196 42.8086C10.9518 42.8424 10.8842 42.8763 10.8164 42.9102C10.3764 45.2799 9.93622 47.6498 9.49612 50.0195C9.81821 50.2909 10.106 50.5956 10.3594 50.9336C10.4531 51.3889 10.3008 51.7275 9.90237 51.9492C9.6654 51.9492 9.42841 51.9492 9.19143 51.9492C8.39121 51.587 7.95111 50.9607 7.87112 50.0703C8.2948 47.579 8.7349 45.0907 9.19143 42.6055C8.82327 42.2883 8.4678 41.9498 8.12503 41.5898C7.60112 40.2583 7.70268 38.9719 8.42972 37.7305C8.91505 37.2254 9.50751 36.9546 10.2071 36.918C10.7103 33.8479 11.2519 30.7842 11.8321 27.7266C11.4527 27.4496 11.0973 27.128 10.7657 26.7617C10.241 25.8472 10.1732 24.8993 10.5625 23.918C10.8864 22.7646 11.6481 22.1214 12.8477 21.9883C13.3565 18.9015 13.8981 15.8208 14.4727 12.7461C13.6886 12.3299 13.1977 11.6867 13 10.8164C13.0032 9.98487 13.1387 9.17237 13.4063 8.37891C14.0891 7.31574 15.0539 6.92642 16.3008 7.21094C16.9327 7.30214 17.5591 7.42063 18.1797 7.56641C18.2581 7.5517 18.3259 7.51785 18.3828 7.46484C18.7163 5.42539 19.0887 3.39414 19.5 1.37109C19.8547 0.694121 20.3795 0.220162 21.0742 -0.0507812ZM28.8946 6.65234C29.888 6.51217 30.4636 6.93535 30.6211 7.92188C30.542 8.44748 30.4573 8.97222 30.3672 9.49609C30.3359 9.57817 30.2852 9.64587 30.2149 9.69922C29.4461 9.50902 28.6675 9.37361 27.8789 9.29297C27.9122 8.6016 28.0308 7.92453 28.2344 7.26172C28.4439 7.03482 28.6639 6.83169 28.8946 6.65234ZM15.1836 8.78516C24.132 10.2484 33.0695 11.7887 41.9961 13.4062C42.1775 13.486 42.3299 13.6044 42.4532 13.7617C42.5267 14.3526 42.4589 14.9282 42.25 15.4883C42.0944 15.6977 41.8913 15.8332 41.6407 15.8945C32.795 14.3046 23.9421 12.7304 15.0821 11.1719C14.8138 11.0086 14.6445 10.7716 14.5742 10.4609C14.6328 9.83798 14.836 9.27939 15.1836 8.78516ZM15.9961 13.0508C24.0215 14.4256 32.0449 15.8137 40.0664 17.2148C39.5528 20.2623 39.0282 23.3092 38.4922 26.3555C38.4352 26.4085 38.3675 26.4423 38.2891 26.457C37.8356 26.3561 37.3786 26.2714 36.918 26.2031C36.8148 26.1504 36.7472 26.0657 36.7149 25.9492C36.9884 24.531 37.2423 23.1091 37.4766 21.6836C37.592 19.8647 36.7626 18.7645 34.9883 18.3828C33.4404 18.3025 32.4078 18.9965 31.8907 20.4648C31.6198 21.9545 31.349 23.444 31.0782 24.9336C31.0254 25.0368 30.9407 25.1044 30.8242 25.1367C30.3843 25.0521 29.9442 24.9675 29.5039 24.8828C29.4007 24.8301 29.3331 24.7454 29.3008 24.6289C29.6677 22.9142 29.9216 21.1877 30.0625 19.4492C29.5731 17.5729 28.3713 16.8111 26.4571 17.1641C25.2911 17.5511 24.5971 18.3467 24.375 19.5508C24.1428 20.9443 23.8888 22.3323 23.6133 23.7148C23.5287 23.7487 23.444 23.7826 23.3594 23.8164C22.9048 23.7187 22.4478 23.6341 21.9883 23.5625C21.9315 23.4889 21.8977 23.4043 21.8867 23.3086C22.2406 21.6262 22.4945 19.9335 22.6485 18.2305C22.1003 16.2038 20.7969 15.4421 18.7383 15.9453C17.9338 16.3095 17.3752 16.902 17.0625 17.7227C16.7855 19.2835 16.4977 20.8407 16.1992 22.3945C16.1146 22.4284 16.0299 22.4623 15.9453 22.4961C15.459 22.3897 14.9681 22.3219 14.4727 22.293C14.9915 19.2141 15.4993 16.1334 15.9961 13.0508ZM19.3477 17.418C20.3161 17.2693 20.8916 17.6755 21.0742 18.6367C20.7923 20.1593 20.5214 21.6828 20.2617 23.207C19.481 23.1108 18.7024 22.9923 17.9258 22.8516C17.8728 22.7946 17.839 22.7268 17.8242 22.6484C18.0862 21.0591 18.4078 19.4849 18.7891 17.9258C18.9648 17.7326 19.151 17.5633 19.3477 17.418ZM27.168 18.6367C27.8923 18.7686 28.3324 19.1919 28.4883 19.9062C28.2118 21.447 27.941 22.9874 27.6758 24.5273C26.9268 24.4419 26.1819 24.3234 25.4414 24.1719C25.3472 24.1325 25.2794 24.0647 25.2383 23.9688C25.5097 22.4586 25.7975 20.9521 26.1016 19.4492C26.3322 18.9967 26.6877 18.7259 27.168 18.6367ZM34.4805 19.957C35.3112 19.9827 35.7852 20.4059 35.9024 21.2266C35.6378 22.7694 35.3669 24.3098 35.0899 25.8477C34.2734 25.7341 33.4609 25.5987 32.6524 25.4414C32.9203 23.8816 33.2081 22.3242 33.5157 20.7695C33.7351 20.3628 34.0568 20.092 34.4805 19.957ZM12.7461 23.6133C21.7325 25.1499 30.7038 26.758 39.6602 28.4375C39.9079 29.0934 39.891 29.7535 39.6094 30.418C39.3052 30.6988 38.9498 30.7834 38.543 30.6719C29.9102 29.1484 21.2774 27.625 12.6446 26.1016C12.1832 25.9956 11.98 25.7079 12.0352 25.2383C12.0531 24.8948 12.1038 24.5563 12.1875 24.2227C12.2912 23.9332 12.4774 23.7301 12.7461 23.6133ZM13.4571 27.8789C21.4142 29.2897 29.37 30.7116 37.3242 32.1445C37.3581 32.2291 37.392 32.3138 37.4258 32.3984C36.9177 35.4125 36.3591 38.4086 35.75 41.3867C35.2026 41.2401 34.644 41.1385 34.0742 41.082C34.328 39.6277 34.5819 38.1719 34.836 36.7148C35.017 34.9943 34.2891 33.8601 32.6524 33.3125C30.9416 33.092 29.8074 33.786 29.25 35.3945C28.9682 36.916 28.6974 38.4395 28.4375 39.9648C28.3955 40.0113 28.3447 40.0452 28.2852 40.0664C27.7519 39.9211 27.2102 39.8195 26.6602 39.7617C26.8942 38.3037 27.1481 36.848 27.4219 35.3945C27.6082 33.6159 26.8465 32.4818 25.1367 31.9922C23.7789 31.8165 22.7463 32.3073 22.0391 33.4648C21.64 35.1824 21.2845 36.9089 20.9727 38.6445C20.9389 38.6784 20.9049 38.7123 20.8711 38.7461C20.3337 38.6227 19.792 38.5211 19.2461 38.4414C19.4889 36.9511 19.7428 35.4616 20.0078 33.9727C20.0586 31.7213 18.9584 30.6211 16.7071 30.6719C15.7851 30.8503 15.0911 31.3412 14.625 32.1445C14.2111 33.8588 13.8556 35.5854 13.5586 37.3242C13.5078 37.358 13.4571 37.392 13.4063 37.4258C12.8819 37.3175 12.3572 37.216 11.8321 37.1211C12.341 34.0337 12.8826 30.9529 13.4571 27.8789ZM16.9102 32.2461C17.8045 32.2097 18.3124 32.6329 18.4336 33.5156C18.1571 35.0563 17.8863 36.5967 17.6211 38.1367C16.8087 38.0013 15.9962 37.866 15.1836 37.7305C15.4291 36.0882 15.7506 34.4632 16.1485 32.8555C16.3652 32.586 16.6191 32.3829 16.9102 32.2461ZM24.3242 33.5664C25.2185 33.5299 25.7263 33.9531 25.8477 34.8359C25.5831 36.3787 25.3122 37.9191 25.0352 39.457C24.2123 39.3312 23.3998 39.162 22.5977 38.9492C22.8853 37.427 23.173 35.9036 23.461 34.3789C23.674 34.013 23.9619 33.7421 24.3242 33.5664ZM31.6367 34.8867C32.5805 34.7981 33.1221 35.2213 33.2617 36.1562C33.0377 37.722 32.733 39.2624 32.3477 40.7773C31.5662 40.621 30.7875 40.4517 30.0117 40.2695C30.2994 38.7473 30.5871 37.2239 30.875 35.6992C31.0467 35.3416 31.3006 35.0708 31.6367 34.8867ZM10.0039 38.543C18.8815 40.0282 27.7513 41.5686 36.6133 43.1641C37.0065 43.2696 37.2435 43.5235 37.3242 43.9258C37.2289 44.3284 37.1443 44.7346 37.0703 45.1445C36.907 45.4128 36.6701 45.5821 36.3594 45.6523C27.5058 44.0836 18.6529 42.5094 9.80081 40.9297C9.48311 40.7481 9.3477 40.4772 9.39456 40.1172C9.42716 39.6833 9.51179 39.2602 9.64847 38.8477C9.76476 38.7323 9.88325 38.6307 10.0039 38.543ZM17.2149 43.9258C18.8039 44.2075 20.3951 44.4784 21.9883 44.7383C21.6617 46.6306 21.357 48.5265 21.0742 50.4258C19.4154 50.4258 17.7565 50.4258 16.0977 50.4258C16.4482 48.2551 16.8206 46.0885 17.2149 43.9258ZM23.6133 45.043C25.1998 45.3399 26.791 45.6108 28.3867 45.8555C28.1608 47.3805 27.9238 48.904 27.6758 50.4258C26.017 50.4258 24.3581 50.4258 22.6992 50.4258C23.0149 48.6334 23.3196 46.8392 23.6133 45.043ZM30.0117 46.1602C31.5964 46.4637 33.1876 46.7346 34.7852 46.9727C34.6856 48.0953 34.4824 49.1956 34.1758 50.2734C32.5606 50.4227 30.9356 50.4735 29.3008 50.4258C29.5597 49.0077 29.7967 47.5858 30.0117 46.1602Z" fill="black" fill-opacity="0.9"/>
</g>
</g>
<defs>
<clipPath id="clip0_1_97">
<rect width="52" height="52" fill="white"/>
</clipPath>
<clipPath id="clip1_1_97">
<rect width="52" height="52" fill="white"/>
</clipPath>
</defs>
</svg>
