<svg width="52" height="52" viewBox="0 0 52 52" fill="none" xmlns="http://www.w3.org/2000/svg">
<g clip-path="url(#clip0_1_188)">
<rect width="52" height="52" fill="#FFF"/>
<g clip-path="url(#clip1_1_188)">
<path opacity="0.933" fill-rule="evenodd" clip-rule="evenodd" d="M51.9492 46.726C51.9492 47.7416 51.9492 48.7572 51.9492 49.7728C51.8291 49.8748 51.6937 49.9595 51.543 50.0267C37.6884 50.128 23.8421 50.0941 10.0039 49.9252C9.70371 49.4514 9.73756 49.0113 10.1055 48.6049C10.2409 48.5711 10.3763 48.5371 10.5117 48.5033C23.8164 48.4525 37.1211 48.4356 50.4258 48.4525C50.4486 47.9703 50.3979 47.4963 50.2734 47.0307C50.1501 46.8733 49.9978 46.7549 49.8164 46.6752C33.9049 46.6074 17.9935 46.6074 2.08203 46.6752C1.90064 46.7549 1.7483 46.8733 1.625 47.0307C1.50057 47.4963 1.44978 47.9703 1.47266 48.4525C3.50419 48.4356 5.53544 48.4525 7.56641 48.5033C8.04037 48.5711 8.31119 48.8418 8.37891 49.3158C8.32241 49.543 8.22084 49.7461 8.07422 49.9252C5.51017 50.0925 2.93726 50.1264 0.355469 50.0267C0.204758 49.9595 0.0693419 49.8748 -0.0507812 49.7728C-0.0507812 48.7572 -0.0507812 47.7416 -0.0507812 46.726C0.563632 45.3428 1.64697 44.7334 3.19922 44.8978C8.62985 36.7759 14.0803 28.6679 19.5508 20.5736C19.8216 20.5059 20.0924 20.5059 20.3633 20.5736C21.0854 21.4256 21.7455 22.3227 22.3438 23.265C25.2871 19.1906 29.265 17.481 34.2773 18.1361C34.819 18.6101 34.819 19.084 34.2773 19.558C30.456 19.1611 27.2229 20.3291 24.5781 23.0619C24.1492 23.5925 23.7599 24.1511 23.4102 24.7377C26.2031 28.6817 28.9961 32.6257 31.7891 36.5697C33.5494 33.9291 35.3099 31.2885 37.0703 28.6478C37.6092 28.0914 38.117 28.1253 38.5938 28.7494C39.7448 30.3744 40.8959 31.9994 42.0469 33.6244C43.497 29.1068 42.4983 25.2305 39.0508 21.9955C38.1926 21.3892 37.3293 20.7968 36.4609 20.2182C36.278 19.534 36.5319 19.1278 37.2227 18.9994C41.277 20.909 43.6299 24.0912 44.2812 28.5463C44.5433 30.8843 44.154 33.1018 43.1133 35.1986C45.4448 38.4566 47.7637 41.7235 50.0703 44.9994C50.9767 45.2797 51.6029 45.8553 51.9492 46.726ZM19.4492 23.4682C19.6084 23.5881 19.6931 23.7573 19.7031 23.976C20.4039 27.3275 21.0979 30.6791 21.7852 34.0307C21.3099 34.0138 20.8361 34.0308 20.3633 34.0814C19.9081 34.4577 19.8403 34.8978 20.1602 35.4017C20.8144 35.6318 21.4915 35.7165 22.1914 35.6557C22.6108 37.7523 23.017 39.8512 23.4102 41.9525C22.9279 41.9297 22.4539 41.9805 21.9883 42.1049C21.4466 42.5789 21.4466 43.0528 21.9883 43.5267C22.5967 43.5774 23.2061 43.5944 23.8164 43.5775C23.9018 44.021 24.0034 44.461 24.1211 44.8978C17.7906 45.0164 11.4599 45.0332 5.12891 44.9486C6.68619 42.6465 8.24349 40.3445 9.80078 38.0424C10.5117 38.0086 11.2227 37.9746 11.9336 37.9408C12.2247 37.7993 12.3601 37.5624 12.3398 37.2299C12.3567 36.7883 12.1536 36.5174 11.7305 36.4174C11.4596 36.3836 11.1888 36.3496 10.918 36.3158C12.097 34.4938 13.3158 32.6995 14.5742 30.933C15.319 30.8992 16.0638 30.8653 16.8086 30.8314C17.1922 30.5358 17.3107 30.1465 17.1641 29.6635C17.0795 29.5789 16.9948 29.4942 16.9102 29.4096C16.516 29.2887 16.1097 29.221 15.6914 29.2064C16.984 27.3139 18.2367 25.4012 19.4492 23.4682ZM21.6836 25.1947C26.3657 31.7637 31.0376 38.3483 35.6992 44.9486C32.3817 44.9994 29.0639 45.0164 25.7461 44.9994C24.3757 38.4009 23.0216 31.7993 21.6836 25.1947ZM37.3242 31.1869C37.8738 33.3584 38.3478 35.5589 38.7461 37.7885C38.2372 37.7716 37.7294 37.7886 37.2227 37.8392C36.5332 38.3916 36.5671 38.8995 37.3242 39.3627C37.9327 39.4134 38.5421 39.4303 39.1523 39.4135C39.5378 41.2729 39.9102 43.1348 40.2695 44.9994C39.4225 45.0163 38.5762 44.9994 37.7305 44.9486C37.3029 44.3135 36.8627 43.6871 36.4102 43.0697C36.7095 42.9863 37.0141 42.9356 37.3242 42.9174C38.0379 42.4971 38.1056 41.9893 37.5273 41.3939C36.7487 41.3601 35.9701 41.3262 35.1914 41.2924C34.3535 40.2344 33.5749 39.1342 32.8555 37.9916C33.2617 37.3822 33.668 36.7728 34.0742 36.1635C34.8167 36.0791 35.5615 36.0283 36.3086 36.0111C36.8576 35.81 37.0438 35.4206 36.8672 34.8432C36.7487 34.7246 36.6302 34.6062 36.5117 34.4877C36.1013 34.4701 35.6951 34.4193 35.293 34.3353C35.9975 33.2974 36.6746 32.2479 37.3242 31.1869ZM39.457 32.9135C42.3344 36.8758 45.1782 40.8706 47.9883 44.8978C45.9909 45.0332 43.9935 45.0332 41.9961 44.8978C41.1176 40.9097 40.2712 36.9149 39.457 32.9135Z" fill="black"/>
<path opacity="0.904" fill-rule="evenodd" clip-rule="evenodd" d="M15.1836 39.312C16.0306 39.2951 16.8769 39.312 17.7226 39.3628C18.3571 39.8212 18.3909 40.329 17.8242 40.8862C16.9101 40.9539 15.9961 40.9539 15.082 40.8862C14.5172 40.3127 14.5511 39.7879 15.1836 39.312Z" fill="black"/>
<path opacity="0.9" fill-rule="evenodd" clip-rule="evenodd" d="M8.27737 42.3589C9.1244 42.342 9.97075 42.3589 10.8164 42.4096C11.5768 42.8774 11.6108 43.3852 10.918 43.9331C10.0378 44.0008 9.15758 44.0008 8.27737 43.9331C7.76264 43.6301 7.64415 43.207 7.9219 42.6635C8.0382 42.5482 8.15668 42.4466 8.27737 42.3589Z" fill="black"/>
</g>
</g>
<defs>
<clipPath id="clip0_1_188">
<rect width="52" height="52" fill="white"/>
</clipPath>
<clipPath id="clip1_1_188">
<rect width="52" height="52" fill="white"/>
</clipPath>
</defs>
</svg>
