<svg width="52" height="52" viewBox="0 0 52 52" fill="none" xmlns="http://www.w3.org/2000/svg">
<g clip-path="url(#clip0_1_48)">
<rect width="52" height="52" fill="#FFF"/>
<path opacity="0.938" fill-rule="evenodd" clip-rule="evenodd" d="M25.9716 3.26248C26.3718 3.26017 26.6791 3.42198 26.8939 3.74788C26.9103 4.462 26.9588 5.17392 27.0395 5.88366C29.7215 7.16074 32.1809 8.76257 34.4176 10.6892C35.8043 11.9453 36.8883 13.4177 37.6698 15.1063C38.4354 17.8388 38.1442 20.46 36.7961 22.9699C36.6343 23.1317 36.4725 23.2935 36.3107 23.4553C36.2622 25.1377 36.2459 26.8204 36.2622 28.5035C36.9094 28.5035 37.5565 28.5035 38.2038 28.5035C38.2038 28.0504 38.2038 27.5974 38.2038 27.1444C37.9515 27.1396 37.7411 27.0425 37.5728 26.8531C36.4314 24.7436 36.8035 22.9476 38.6892 21.4651C39.595 20.7613 40.5821 20.195 41.6501 19.7662C43.5411 20.4286 45.0296 21.5936 46.1159 23.2611C46.5018 24.4648 46.4047 25.6298 45.8246 26.756C45.6323 26.9654 45.4058 27.1273 45.1451 27.2414C45.0966 27.6609 45.0804 28.0816 45.0965 28.5035C46.9069 28.3903 48.0557 29.1993 48.5429 30.9305C48.5914 37.0465 48.6076 43.1626 48.5914 49.2788C49.0457 49.2627 49.4986 49.2789 49.9506 49.3273C50.5174 49.9058 50.4527 50.3912 49.7564 50.7836C34.0293 50.8483 18.3022 50.8483 2.5751 50.7836C1.87966 50.3958 1.81494 49.9104 2.38094 49.3273C2.83283 49.2789 3.28588 49.2627 3.74007 49.2788C3.72389 43.1626 3.74007 37.0465 3.78861 30.9305C4.27578 29.1993 5.42458 28.3903 7.23498 28.5035C7.25107 28.0816 7.23488 27.6609 7.18644 27.2414C6.92573 27.1273 6.69921 26.9654 6.50687 26.756C5.76431 25.3379 5.79668 23.9463 6.60395 22.5816C7.71185 21.283 9.07098 20.3445 10.6814 19.7662C12.6059 20.4294 14.0944 21.6268 15.1471 23.3582C15.5411 24.5771 15.4116 25.742 14.7587 26.8531C14.5904 27.0425 14.38 27.1396 14.1277 27.1444C14.1277 27.5974 14.1277 28.0504 14.1277 28.5035C14.775 28.5035 15.4221 28.5035 16.0693 28.5035C16.0856 26.8204 16.0693 25.1377 16.0208 23.4553C15.5502 23.0323 15.2266 22.5146 15.05 21.902C14.1241 19.6781 13.9946 17.4129 14.6617 15.1063C15.4432 13.4177 16.5272 11.9453 17.9139 10.6892C20.1506 8.76257 22.61 7.16074 25.292 5.88366C25.3727 5.17392 25.4212 4.462 25.4376 3.74788C25.5689 3.52954 25.7468 3.36775 25.9716 3.26248ZM25.9716 7.24279C29.1782 8.58739 32.0097 10.4967 34.4662 12.9706C36.7827 15.5185 37.2034 18.3662 35.7282 21.5137C35.6192 21.7806 35.4736 22.0233 35.2914 22.2418C29.2076 22.3065 23.1239 22.3065 17.0401 22.2418C15.8761 20.2897 15.5364 18.2024 16.0208 15.9801C16.4639 14.8666 17.0787 13.8634 17.8653 12.9706C20.2588 10.6176 22.9609 8.70835 25.9716 7.24279ZM10.6328 21.4166C11.6817 21.9175 12.6039 22.5971 13.3996 23.4553C13.8938 24.1488 13.9747 24.8932 13.6423 25.6882C11.6673 25.7205 9.6933 25.6882 7.72038 25.5911C7.42224 24.8841 7.47078 24.2046 7.86601 23.5524C8.66778 22.6679 9.59004 21.956 10.6328 21.4166ZM41.6016 21.4166C42.7007 21.9267 43.6553 22.6386 44.4655 23.5524C44.8603 24.201 44.9089 24.8805 44.6111 25.5911C42.647 25.7198 40.6892 25.7198 38.7377 25.5911C38.3648 24.8365 38.4296 24.1246 38.9319 23.4553C39.7499 22.6678 40.6397 21.9882 41.6016 21.4166ZM17.6226 23.8436C23.3181 23.8436 29.0134 23.8436 34.7089 23.8436C34.7089 24.8792 34.7089 25.9146 34.7089 26.9502C29.0134 26.9502 23.3181 26.9502 17.6226 26.9502C17.6226 25.9146 17.6226 24.8792 17.6226 23.8436ZM8.78827 27.2414C10.0503 27.2414 11.3124 27.2414 12.5744 27.2414C12.5744 27.6621 12.5744 28.0828 12.5744 28.5035C11.3124 28.5035 10.0503 28.5035 8.78827 28.5035C8.78827 28.0828 8.78827 27.6621 8.78827 27.2414ZM39.7571 27.2414C41.0191 27.2414 42.2812 27.2414 43.5432 27.2414C43.5432 27.6621 43.5432 28.0828 43.5432 28.5035C42.2812 28.5035 41.0191 28.5035 39.7571 28.5035C39.7571 28.0828 39.7571 27.6621 39.7571 27.2414ZM17.6226 28.5035C23.3181 28.5035 29.0134 28.5035 34.7089 28.5035C34.7089 35.4286 34.7089 42.3537 34.7089 49.2788C34.3205 49.2788 33.9322 49.2788 33.5439 49.2788C33.5601 43.8745 33.5439 38.4704 33.4954 33.0663C33.2624 32.089 32.6638 31.458 31.6994 31.1732C29.8583 31.0638 28.0138 31.0153 26.1657 31.0276C24.3177 31.0153 22.4732 31.0638 20.6321 31.1732C19.7839 31.4066 19.2176 31.9405 18.9332 32.7751C18.7892 38.2719 18.7406 43.7731 18.7876 49.2788C18.3993 49.2788 18.011 49.2788 17.6226 49.2788C17.6226 42.3537 17.6226 35.4286 17.6226 28.5035ZM6.36125 30.0568C9.59728 30.0568 12.8333 30.0568 16.0693 30.0568C16.0693 36.4641 16.0693 42.8715 16.0693 49.2788C12.4773 49.2788 8.88535 49.2788 5.29336 49.2788C5.27718 43.2597 5.29336 37.2407 5.3419 31.2218C5.4993 30.6606 5.83908 30.2723 6.36125 30.0568ZM36.2622 30.0568C39.4983 30.0406 42.7343 30.0568 45.9702 30.1053C46.5194 30.2784 46.8592 30.6505 46.9896 31.2218C47.0381 37.2407 47.0543 43.2597 47.0381 49.2788C43.4461 49.2788 39.8542 49.2788 36.2622 49.2788C36.2622 42.8715 36.2622 36.4641 36.2622 30.0568ZM21.3117 32.5809C24.5479 32.5647 27.7839 32.5809 31.0198 32.6294C31.3707 32.689 31.6459 32.867 31.845 33.1634C31.9898 38.5271 32.0384 43.8989 31.9906 49.2788C31.6023 49.2788 31.214 49.2788 30.8256 49.2788C30.8418 46.3985 30.8256 43.5185 30.7771 40.6386C30.3802 38.0737 29.0373 36.1807 26.7482 34.9594C26.3599 34.8946 25.9716 34.8946 25.5833 34.9594C23.2942 36.1807 21.9513 38.0737 21.5544 40.6386C21.5059 43.5185 21.4897 46.3985 21.5059 49.2788C21.1175 49.2788 20.7292 49.2788 20.3409 49.2788C20.3247 43.9716 20.3409 38.6646 20.3894 33.3575C20.5838 32.9474 20.8912 32.6886 21.3117 32.5809ZM10.1474 33.8429C11.0296 33.6933 11.6606 34.017 12.0405 34.8138C12.1052 35.5904 12.1052 36.3671 12.0405 37.1437C11.0939 37.048 10.1393 37.0156 9.1766 37.0466C9.16045 36.3663 9.17664 35.6867 9.22514 35.0079C9.37328 34.481 9.6807 34.0926 10.1474 33.8429ZM41.2133 33.8429C42.5262 33.7157 43.1734 34.3144 43.1549 35.6389C43.1206 36.1419 43.0721 36.6434 43.0093 37.1437C42.0951 37.0481 41.1728 37.0157 40.2425 37.0466C40.2264 36.3016 40.2425 35.5573 40.291 34.8138C40.4873 34.375 40.7948 34.0514 41.2133 33.8429ZM26.0687 36.4641C27.848 37.3871 28.8996 38.8433 29.2238 40.8328C29.2723 43.6479 29.2885 46.4633 29.2723 49.2788C27.2013 49.2788 25.1302 49.2788 23.0592 49.2788C23.0151 46.2658 23.0636 43.2563 23.2048 40.2503C23.6438 38.5945 24.5985 37.3324 26.0687 36.4641ZM10.2445 42.4831C11.0912 42.3642 11.6898 42.6879 12.0405 43.454C12.089 44.2299 12.1051 45.0066 12.089 45.7839C11.1159 45.8 10.1451 45.7676 9.1766 45.6868C9.14133 44.9033 9.18987 44.1266 9.32222 43.3569C9.55577 42.9775 9.86319 42.6862 10.2445 42.4831ZM41.3104 42.4831C42.5601 42.487 43.1749 43.1181 43.1549 44.3762C43.1104 44.845 43.0781 45.3142 43.0578 45.7839C42.1167 45.8026 41.1782 45.7703 40.2425 45.6868C40.2264 44.9418 40.2425 44.1975 40.291 43.454C40.4955 42.9741 40.8353 42.6505 41.3104 42.4831Z" fill="#0C0C0C"/>
<path opacity="0.928" fill-rule="evenodd" clip-rule="evenodd" d="M9.85621 32.2896C11.729 32.0144 12.9748 32.7586 13.5938 34.5225C13.6586 35.558 13.6586 36.5935 13.5938 37.6291C13.4159 38.0659 13.1084 38.3734 12.6716 38.5513C11.4789 38.7029 10.2816 38.7352 9.07956 38.6484C8.47897 38.5671 8.04211 38.2597 7.76897 37.7261C7.57945 36.5956 7.57945 35.463 7.76897 34.3283C8.13309 33.3007 8.82884 32.6211 9.85621 32.2896ZM10.1475 33.8429C9.68075 34.0926 9.37333 34.4809 9.22519 35.0079C9.17668 35.6867 9.1605 36.3662 9.17664 37.0466C10.1393 37.0156 11.094 37.0479 12.0405 37.1437C12.1053 36.367 12.1053 35.5904 12.0405 34.8137C11.6607 34.017 11.0296 33.6933 10.1475 33.8429Z" fill="#0C0C0C"/>
<path opacity="0.925" fill-rule="evenodd" clip-rule="evenodd" d="M40.9221 32.2897C42.924 32.0464 44.1699 32.8878 44.6597 34.8138C44.7245 35.6876 44.7245 36.5613 44.6597 37.435C44.5228 37.9534 44.2154 38.3255 43.7374 38.5514C42.5448 38.703 41.3475 38.7353 40.1454 38.6485C39.4595 38.6051 38.9903 38.2654 38.7378 37.6292C38.673 36.5936 38.673 35.5582 38.7378 34.5226C39.0954 33.4046 39.8235 32.6603 40.9221 32.2897ZM41.2133 33.843C40.7948 34.0515 40.4874 34.375 40.2911 34.8138C40.2425 35.5574 40.2264 36.3017 40.2425 37.0467C41.1729 37.0158 42.0951 37.0482 43.0093 37.1438C43.0721 36.6435 43.1207 36.142 43.155 35.639C43.1735 34.3145 42.5263 33.7158 41.2133 33.843Z" fill="#0C0C0C"/>
<path opacity="0.937" fill-rule="evenodd" clip-rule="evenodd" d="M10.0505 40.9296C11.6706 40.7603 12.8194 41.4076 13.4968 42.8713C13.6524 43.9969 13.6847 45.1296 13.5939 46.2691C13.4421 46.6854 13.167 46.9928 12.7687 47.1914C11.481 47.3478 10.1867 47.3801 8.88549 47.2884C8.33924 47.1955 7.9671 46.8881 7.76906 46.3662C7.61502 45.435 7.58265 44.4966 7.67198 43.5508C7.94648 42.1929 8.73931 41.3191 10.0505 40.9296ZM10.2446 42.4829C9.86333 42.686 9.5559 42.9773 9.32235 43.3567C9.19 44.1264 9.14146 44.9031 9.17673 45.6866C10.1452 45.7674 11.116 45.7998 12.0892 45.7837C12.1053 45.0064 12.0892 44.2297 12.0406 43.4538C11.69 42.6877 11.0914 42.364 10.2446 42.4829Z" fill="#0C0C0C"/>
<path opacity="0.934" fill-rule="evenodd" clip-rule="evenodd" d="M41.0192 40.9299C43.002 40.7473 44.2155 41.621 44.6597 43.5511C44.7245 44.3925 44.7245 45.2338 44.6597 46.0752C44.561 46.5812 44.2858 46.9533 43.8345 47.1916C42.5131 47.3463 41.1864 47.3786 39.8542 47.2887C39.4332 47.1587 39.0934 46.916 38.8349 46.5606C38.7278 45.9533 38.6792 45.3385 38.6892 44.7161C38.4603 42.8081 39.237 41.546 41.0192 40.9299ZM41.3104 42.4832C40.8353 42.6506 40.4955 42.9742 40.2911 43.454C40.2425 44.1976 40.2264 44.9419 40.2425 45.6869C41.1783 45.7704 42.1168 45.8027 43.0579 45.784C43.0782 45.3143 43.1105 44.8451 43.155 44.3763C43.175 43.1181 42.5601 42.4871 41.3104 42.4832Z" fill="#0C0C0C"/>
</g>
<defs>
<clipPath id="clip0_1_48">
<rect width="52" height="52" fill="white"/>
</clipPath>
</defs>
</svg>
